<mxfile host="app.diagrams.net" modified="2023-06-19T20:46:51.294Z" agent="5.0 (X11)" etag="QyyR2QtNpAnmzdHA6kgQ" version="20.2.0" type="github">
  <diagram id="4qqDXFc02qR9rb0oE80Z" name="Page-1">
    <mxGraphModel dx="1021" dy="560" grid="1" gridSize="10" guides="1" tooltips="1" connect="1" arrows="1" fold="1" page="1" pageScale="1" pageWidth="850" pageHeight="1100" math="0" shadow="0">
      <root>
        <mxCell id="0" />
        <mxCell id="1" parent="0" />
        <mxCell id="UDDsUk1C3Lc5css1N91l-14" style="edgeStyle=orthogonalEdgeStyle;rounded=0;orthogonalLoop=1;jettySize=auto;html=1;exitX=0.5;exitY=1;exitDx=0;exitDy=0;entryX=0.5;entryY=0;entryDx=0;entryDy=0;" edge="1" parent="1" source="UDDsUk1C3Lc5css1N91l-1" target="UDDsUk1C3Lc5css1N91l-2">
          <mxGeometry relative="1" as="geometry" />
        </mxCell>
        <mxCell id="UDDsUk1C3Lc5css1N91l-1" value="&lt;div&gt;Employer&lt;/div&gt;&lt;div&gt;&amp;nbsp;Onboarding&lt;/div&gt;" style="rounded=0;whiteSpace=wrap;html=1;" vertex="1" parent="1">
          <mxGeometry x="390" y="78" width="120" height="60" as="geometry" />
        </mxCell>
        <mxCell id="UDDsUk1C3Lc5css1N91l-15" style="edgeStyle=orthogonalEdgeStyle;rounded=0;orthogonalLoop=1;jettySize=auto;html=1;exitX=0.5;exitY=1;exitDx=0;exitDy=0;entryX=0.5;entryY=0;entryDx=0;entryDy=0;" edge="1" parent="1" source="UDDsUk1C3Lc5css1N91l-2" target="UDDsUk1C3Lc5css1N91l-3">
          <mxGeometry relative="1" as="geometry" />
        </mxCell>
        <mxCell id="UDDsUk1C3Lc5css1N91l-2" value="&lt;div&gt;Enter email&lt;/div&gt;&lt;div&gt;and password&lt;br&gt;&lt;/div&gt;" style="rounded=1;whiteSpace=wrap;html=1;" vertex="1" parent="1">
          <mxGeometry x="390" y="178" width="120" height="60" as="geometry" />
        </mxCell>
        <mxCell id="UDDsUk1C3Lc5css1N91l-16" style="edgeStyle=orthogonalEdgeStyle;rounded=0;orthogonalLoop=1;jettySize=auto;html=1;exitX=0.5;exitY=1;exitDx=0;exitDy=0;entryX=0.5;entryY=0;entryDx=0;entryDy=0;" edge="1" parent="1" source="UDDsUk1C3Lc5css1N91l-3" target="UDDsUk1C3Lc5css1N91l-4">
          <mxGeometry relative="1" as="geometry" />
        </mxCell>
        <mxCell id="UDDsUk1C3Lc5css1N91l-3" value="&lt;div&gt;Verify email via&lt;/div&gt;&lt;div&gt;OTP&lt;br&gt;&lt;/div&gt;" style="rounded=1;whiteSpace=wrap;html=1;" vertex="1" parent="1">
          <mxGeometry x="390" y="278" width="120" height="60" as="geometry" />
        </mxCell>
        <mxCell id="UDDsUk1C3Lc5css1N91l-13" style="edgeStyle=orthogonalEdgeStyle;rounded=0;orthogonalLoop=1;jettySize=auto;html=1;exitX=0.5;exitY=1;exitDx=0;exitDy=0;entryX=0.5;entryY=0;entryDx=0;entryDy=0;" edge="1" parent="1" source="UDDsUk1C3Lc5css1N91l-4" target="UDDsUk1C3Lc5css1N91l-10">
          <mxGeometry relative="1" as="geometry" />
        </mxCell>
        <mxCell id="UDDsUk1C3Lc5css1N91l-4" value="&lt;div&gt;Setup employer&lt;/div&gt;&lt;div&gt;profile&lt;br&gt;&lt;/div&gt;" style="rounded=1;whiteSpace=wrap;html=1;" vertex="1" parent="1">
          <mxGeometry x="390" y="378" width="120" height="60" as="geometry" />
        </mxCell>
        <mxCell id="UDDsUk1C3Lc5css1N91l-12" style="edgeStyle=orthogonalEdgeStyle;rounded=0;orthogonalLoop=1;jettySize=auto;html=1;exitX=0.5;exitY=1;exitDx=0;exitDy=0;entryX=0.5;entryY=0;entryDx=0;entryDy=0;" edge="1" parent="1" source="UDDsUk1C3Lc5css1N91l-10" target="UDDsUk1C3Lc5css1N91l-5">
          <mxGeometry relative="1" as="geometry" />
        </mxCell>
        <mxCell id="UDDsUk1C3Lc5css1N91l-23" style="edgeStyle=orthogonalEdgeStyle;rounded=0;orthogonalLoop=1;jettySize=auto;html=1;exitX=1;exitY=0.5;exitDx=0;exitDy=0;entryX=0;entryY=0.5;entryDx=0;entryDy=0;" edge="1" parent="1" source="UDDsUk1C3Lc5css1N91l-10" target="UDDsUk1C3Lc5css1N91l-21">
          <mxGeometry relative="1" as="geometry">
            <mxPoint x="570" y="553.2941176470589" as="targetPoint" />
          </mxGeometry>
        </mxCell>
        <mxCell id="UDDsUk1C3Lc5css1N91l-10" value="&lt;div&gt;Is &lt;br&gt;&lt;/div&gt;&lt;div&gt;Organization &lt;br&gt;&lt;/div&gt;&lt;div&gt;using one of our payroll &lt;br&gt;&lt;/div&gt;&lt;div&gt;partners?&lt;/div&gt;" style="rhombus;whiteSpace=wrap;html=1;" vertex="1" parent="1">
          <mxGeometry x="390" y="498" width="120" height="110" as="geometry" />
        </mxCell>
        <mxCell id="UDDsUk1C3Lc5css1N91l-11" value="" style="group" vertex="1" connectable="0" parent="1">
          <mxGeometry x="390" y="688" width="120" height="380" as="geometry" />
        </mxCell>
        <mxCell id="UDDsUk1C3Lc5css1N91l-17" style="edgeStyle=orthogonalEdgeStyle;rounded=0;orthogonalLoop=1;jettySize=auto;html=1;exitX=0.5;exitY=1;exitDx=0;exitDy=0;entryX=0.5;entryY=0;entryDx=0;entryDy=0;" edge="1" parent="UDDsUk1C3Lc5css1N91l-11" source="UDDsUk1C3Lc5css1N91l-5" target="UDDsUk1C3Lc5css1N91l-6">
          <mxGeometry relative="1" as="geometry" />
        </mxCell>
        <mxCell id="UDDsUk1C3Lc5css1N91l-5" value="&lt;div&gt;Connect to payroll system using Oauth&lt;br&gt;&lt;/div&gt;" style="rounded=1;whiteSpace=wrap;html=1;" vertex="1" parent="UDDsUk1C3Lc5css1N91l-11">
          <mxGeometry y="-20" width="120" height="60" as="geometry" />
        </mxCell>
        <mxCell id="UDDsUk1C3Lc5css1N91l-18" style="edgeStyle=orthogonalEdgeStyle;rounded=0;orthogonalLoop=1;jettySize=auto;html=1;exitX=0.5;exitY=1;exitDx=0;exitDy=0;" edge="1" parent="UDDsUk1C3Lc5css1N91l-11" source="UDDsUk1C3Lc5css1N91l-6" target="UDDsUk1C3Lc5css1N91l-7">
          <mxGeometry relative="1" as="geometry" />
        </mxCell>
        <mxCell id="UDDsUk1C3Lc5css1N91l-6" value="Organization information are pulled from payroll system" style="rounded=0;whiteSpace=wrap;html=1;" vertex="1" parent="UDDsUk1C3Lc5css1N91l-11">
          <mxGeometry y="100" width="120" height="60" as="geometry" />
        </mxCell>
        <mxCell id="UDDsUk1C3Lc5css1N91l-19" style="edgeStyle=orthogonalEdgeStyle;rounded=0;orthogonalLoop=1;jettySize=auto;html=1;exitX=0.5;exitY=1;exitDx=0;exitDy=0;" edge="1" parent="UDDsUk1C3Lc5css1N91l-11" source="UDDsUk1C3Lc5css1N91l-7" target="UDDsUk1C3Lc5css1N91l-8">
          <mxGeometry relative="1" as="geometry" />
        </mxCell>
        <mxCell id="UDDsUk1C3Lc5css1N91l-7" value="&lt;div&gt;Organization profile setup &lt;br&gt;&lt;/div&gt;&lt;div&gt;(prefilled with info from previous step)&lt;/div&gt;" style="rounded=0;whiteSpace=wrap;html=1;" vertex="1" parent="UDDsUk1C3Lc5css1N91l-11">
          <mxGeometry y="200" width="120" height="80" as="geometry" />
        </mxCell>
        <mxCell id="UDDsUk1C3Lc5css1N91l-8" value="Dashboard" style="rounded=0;whiteSpace=wrap;html=1;" vertex="1" parent="UDDsUk1C3Lc5css1N91l-11">
          <mxGeometry y="320" width="120" height="60" as="geometry" />
        </mxCell>
        <mxCell id="UDDsUk1C3Lc5css1N91l-20" value="&lt;div&gt;True&lt;/div&gt;" style="text;html=1;strokeColor=none;fillColor=none;align=center;verticalAlign=middle;whiteSpace=wrap;rounded=0;" vertex="1" parent="1">
          <mxGeometry x="395" y="608" width="60" height="30" as="geometry" />
        </mxCell>
        <mxCell id="UDDsUk1C3Lc5css1N91l-22" style="edgeStyle=orthogonalEdgeStyle;rounded=0;orthogonalLoop=1;jettySize=auto;html=1;exitX=0.5;exitY=1;exitDx=0;exitDy=0;entryX=1;entryY=0.5;entryDx=0;entryDy=0;" edge="1" parent="1" source="UDDsUk1C3Lc5css1N91l-21" target="UDDsUk1C3Lc5css1N91l-8">
          <mxGeometry relative="1" as="geometry" />
        </mxCell>
        <mxCell id="UDDsUk1C3Lc5css1N91l-21" value="Request payroll system" style="rounded=1;whiteSpace=wrap;html=1;" vertex="1" parent="1">
          <mxGeometry x="580" y="523" width="120" height="60" as="geometry" />
        </mxCell>
        <mxCell id="UDDsUk1C3Lc5css1N91l-24" value="False" style="text;html=1;strokeColor=none;fillColor=none;align=center;verticalAlign=middle;whiteSpace=wrap;rounded=0;" vertex="1" parent="1">
          <mxGeometry x="510" y="523" width="60" height="30" as="geometry" />
        </mxCell>
        <mxCell id="UDDsUk1C3Lc5css1N91l-25" value="&lt;h1&gt;EMPLOYER ONBOARDING MODIFIED.&lt;/h1&gt;" style="text;html=1;strokeColor=none;fillColor=none;spacing=5;spacingTop=-20;whiteSpace=wrap;overflow=hidden;rounded=0;" vertex="1" parent="1">
          <mxGeometry x="315" y="20" width="450" height="40" as="geometry" />
        </mxCell>
      </root>
    </mxGraphModel>
  </diagram>
</mxfile>
